HIERARCHY
ROOT Hips
{
	OFFSET -3.958830 18.904000 13.208200
	CHANNELS 6 Xposition Yposition Zposition Zrotation Yrotation Xrotation 
	JOINT LHipJoint
	{
		OFFSET 0.000000 0.000000 0.000000
		CHANNELS 3 Zrotation Yrotation Xrotation
		JOINT LeftUpLeg
		{
			OFFSET 1.800000 -1.400000 0.085000
			CHANNELS 3 Zrotation Yrotation Xrotation
			JOINT LeftLeg
			{
				OFFSET 2.215000 -6.000000 0.000000
				CHANNELS 3 Zrotation Yrotation Xrotation
				JOINT LeftFoot
				{
					OFFSET 2.500000 -6.900000 0.000000
					CHANNELS 3 Zrotation Yrotation Xrotation
					JOINT LeftToeBase
					{
						OFFSET 0.200000 -0.500000 1.950000
						CHANNELS 3 Zrotation Yrotation Xrotation
						End Site
						{
							OFFSET 0.000000 0.000000 0.000000
						}
					}
				}
			}
		}
	}
	JOINT RHipJoint
	{
		OFFSET 0.000000 0.000000 0.000000
		CHANNELS 3 Zrotation Yrotation Xrotation
		JOINT RightUpLeg
		{
			OFFSET -1.800000 -1.400000 0.085000
			CHANNELS 3 Zrotation Yrotation Xrotation
			JOINT RightLeg
			{
				OFFSET -2.215000 -6.000000 0.000000
				CHANNELS 3 Zrotation Yrotation Xrotation
				JOINT RightFoot
				{
					OFFSET -2.500000 -6.900000 0.000000
					CHANNELS 3 Zrotation Yrotation Xrotation
					JOINT RightToeBase
					{
						OFFSET -0.200000 -0.500000 1.950000
						CHANNELS 3 Zrotation Yrotation Xrotation
						End Site
						{
							OFFSET 0.000000 0.000000 0.000000
						}
					}
				}
			}
		}
	}
	JOINT LowerBack
	{
		OFFSET 0.000000 0.000000 0.000000
		CHANNELS 3 Zrotation Yrotation Xrotation
		JOINT Spine
		{
			OFFSET -0.087000 1.940000 -0.288900
			CHANNELS 3 Zrotation Yrotation Xrotation
			JOINT Spine1
			{
				OFFSET 0.000000 1.950000 0.060000
				CHANNELS 3 Zrotation Yrotation Xrotation
				JOINT Neck
				{
					OFFSET 0.000000 0.000000 0.000000
					CHANNELS 3 Zrotation Yrotation Xrotation
					JOINT Neck1
					{
						OFFSET 0.000000 1.600000 0.340000
						CHANNELS 3 Zrotation Yrotation Xrotation
						JOINT Head
						{
							OFFSET 0.000000 1.667000 -0.240000
							CHANNELS 3 Zrotation Yrotation Xrotation
							End Site
							{
								OFFSET 0.000000 0.000000 0.000000
							}
						}
					}
				}
				JOINT LeftShoulder
				{
					OFFSET 0.000000 0.000000 0.000000
					CHANNELS 3 Zrotation Yrotation Xrotation
					JOINT LeftArm
					{
						OFFSET 2.700000 1.550000 -0.730000
						CHANNELS 3 Zrotation Yrotation Xrotation
						JOINT LeftForeArm
						{
							OFFSET 5.450000 0.000000 0.000000
							CHANNELS 3 Zrotation Yrotation Xrotation
							JOINT LeftHand
							{
								OFFSET 3.450000 0.000000 0.000000
								CHANNELS 3 Zrotation Yrotation Xrotation
								JOINT LeftHandIndex1
								{
									OFFSET 0.750000 0.000000 0.000000
									CHANNELS 3 Zrotation Yrotation Xrotation
									End Site
									{
										OFFSET 0.000000 0.000000 0.000000
									}
								}
							}
						}
					}
				}
				JOINT RightShoulder
				{
					OFFSET 0.000000 0.000000 0.000000
					CHANNELS 3 Zrotation Yrotation Xrotation
					JOINT RightArm
					{
						OFFSET -2.700000 1.550000 -0.730000
						CHANNELS 3 Zrotation Yrotation Xrotation
						JOINT RightForeArm
						{
							OFFSET -5.450000 0.000000 0.000000
							CHANNELS 3 Zrotation Yrotation Xrotation
							JOINT RightHand
							{
								OFFSET -3.450000 0.000000 0.000000
								CHANNELS 3 Zrotation Yrotation Xrotation
								JOINT RightHandIndex1
								{
									OFFSET -0.750000 0.000000 0.000000
									CHANNELS 3 Zrotation Yrotation Xrotation
									End Site
									{
										OFFSET 0.000000 0.000000 0.000000
									}
								}
							}
						}
					}
				}
			}
		}
	}
}
MOTION
Frames: 9
Frame Time: 0.016667
1.431570 17.440350 0.814760 0.693058 1.509412 -2.318106 -14.879430 13.233760 2.793126 2.330995 0.019046 -4.513910 -11.563563 7.343172 12.937906 0.237960 4.638211 3.171114 0.130010 0.164800 -0.024930 18.689984 -9.957299 3.568372 8.688500 5.210780 -33.430356 -2.417945 -2.196614 13.955510 0.109649 -1.469351 4.016265 -0.047740 0.334960 0.130550 -4.617960 -2.382898 -7.569714 17.901742 -10.646288 14.981706 -19.845759 -7.619618 7.398505 4.909456 -6.464023 -10.298158 -16.675170 11.878864 39.148568 -9.269840 10.612310 -0.130540 -23.522773 -7.424076 0.450925 -27.703257 -8.280435 -5.059538 7.054777 -23.386755 -1.544503 -3.746828 2.895514 0.170860 0.212760 0.046820 0.305900 12.771129 7.354724 10.256518 59.168253 -8.556068 -11.046014 103.369244 56.487451 49.478654 2.459274 -1.931218 -0.042010 0.209280 -0.095210 0.101680 
1.379590 17.430030 0.843040 0.296649 -0.432356 -2.943979 -14.890634 13.272434 2.781798 3.000178 0.159231 -3.788401 -11.555670 7.507901 13.080376 0.238081 4.728435 3.141845 0.123520 0.146510 -0.009210 18.666516 -9.908238 3.625632 8.009216 5.329328 -32.650250 0.413547 -2.339901 10.455797 0.130192 -1.275671 4.102508 -0.055300 0.313510 0.087350 -4.549336 -2.457420 -7.643161 17.066772 -9.572665 14.992973 -18.831358 -6.534635 7.918411 4.757975 -6.314202 -11.422358 -17.310497 12.351697 41.433749 -8.761220 10.465010 -0.079590 -22.019863 -8.848175 1.403455 -28.612603 -8.593569 -4.204388 5.094682 -21.429094 -1.141187 -3.716723 2.815077 0.218900 0.176850 0.056120 0.289620 11.728919 9.361945 10.665827 59.490850 -6.787552 -10.881592 102.807565 57.553148 49.738136 2.506325 -1.841307 -0.071530 0.244780 -0.089860 0.078620 
1.320150 17.440000 0.874770 0.046505 -1.445494 -3.472281 -14.935754 13.361713 2.797861 3.614317 0.224563 -3.293110 -11.565760 7.657515 13.294055 0.274488 4.806834 3.104744 0.143050 0.149800 0.037060 18.601489 -9.858486 3.651208 6.918058 5.294260 -32.155831 2.455924 -2.425722 8.328593 0.112187 -1.219217 4.111857 -0.072880 0.271450 0.101980 -4.381128 -2.651511 -7.736197 15.436600 -8.600916 14.988887 -17.169239 -5.751216 8.127781 4.678952 -5.927239 -12.067836 -17.126027 12.363529 43.480355 -9.271390 10.821270 -0.151050 -21.215174 -9.922958 2.174181 -29.770630 -8.819104 -3.594102 3.207524 -20.294035 -0.834112 -3.693523 2.811759 0.241240 0.151560 0.088520 0.274410 11.251122 10.811270 10.676595 59.022501 -4.935168 -10.522845 98.663233 57.924006 46.673777 2.546227 -1.821771 -0.047600 0.221600 -0.102300 0.064230 
1.249780 17.466110 0.893120 -0.254783 -1.252768 -3.732872 -15.013827 13.509117 2.798804 4.302763 0.138743 -3.607771 -11.245773 7.777637 14.055030 0.295541 4.848972 3.071765 0.138710 0.144350 0.043350 18.501202 -9.800608 3.655934 5.873200 5.193242 -32.153631 2.870050 -2.362741 7.323800 0.114422 -1.190469 4.118225 -0.091560 0.252640 0.114880 -4.123524 -2.977072 -7.811798 13.345561 -7.833379 14.614309 -14.953460 -5.295096 8.291826 4.561839 -5.316527 -12.539430 -16.338883 12.224961 45.406961 -9.500390 11.353830 0.712320 -20.170772 -11.020073 2.877918 -31.601062 -9.921846 -2.481620 1.117616 -17.875646 -0.497791 -3.708759 2.817254 0.235250 0.151210 0.097320 0.262280 10.653326 12.012788 10.530305 58.778996 -3.046233 -10.277688 91.248386 57.874696 41.120422 2.547840 -1.837838 -0.026190 0.190350 -0.101620 0.060890 
1.188030 17.482040 0.941700 -1.162743 -0.602618 -3.354240 -15.067574 13.580462 2.733202 5.441909 0.013841 -4.177586 -10.842185 7.788377 14.313806 0.310221 4.873899 3.071286 0.109670 0.112100 0.009020 18.450964 -9.746555 3.616455 4.845481 5.165665 -32.182673 3.122782 -2.345478 7.019031 0.143965 -1.248120 4.112538 -0.108360 0.295730 0.136230 -3.985459 -3.170940 -7.726763 12.918278 -7.414081 12.452530 -13.445938 -5.203917 8.753395 4.436551 -5.175105 -12.509993 -16.143153 12.094856 45.730640 -9.518940 11.694480 3.116340 -18.080422 -11.054972 3.236374 -35.340620 -11.929472 -0.746875 -0.959043 -14.894472 -0.219119 -3.784258 2.838748 0.181900 0.202540 0.059410 0.273080 8.900385 12.193921 10.001491 59.541704 -0.655117 -9.621859 80.951944 56.490267 33.823424 2.473582 -1.923186 -0.019390 0.160020 -0.096390 0.077420 
1.121300 17.503150 0.995190 -2.155599 -0.425016 -2.939954 -15.093279 13.589782 2.675236 6.753396 -0.121616 -4.816297 -10.952673 7.972582 14.667712 0.347999 4.956449 3.046293 0.080750 0.095760 -0.049480 18.432422 -9.747186 3.545583 4.006061 5.146877 -32.053098 2.866659 -2.363051 7.759186 0.172858 -1.341593 4.084079 -0.116730 0.355460 0.154840 -3.925942 -3.195323 -7.590825 12.818170 -6.824325 10.260616 -12.118334 -4.943891 9.002442 4.033221 -5.177936 -12.237060 -16.026516 12.141256 45.409468 -8.095090 11.391490 5.376000 -15.905425 -10.795602 3.462511 -40.002442 -14.012973 1.160504 -2.225886 -11.836541 -0.074971 -3.868807 2.891480 0.107320 0.253200 0.007750 0.282650 7.558315 12.099254 9.287657 60.395086 1.739026 -9.069351 69.750774 53.328898 26.008625 2.402163 -1.980320 -0.001570 0.132710 -0.079980 0.111310 
1.044820 17.529460 1.043500 -2.858232 -0.276520 -2.572182 -15.143786 13.651349 2.639306 7.611617 -0.196703 -5.505930 -10.630360 8.029918 15.020406 0.341450 4.995065 3.046800 0.025860 0.039670 -0.111560 18.378436 -9.786040 3.447036 2.990886 5.014436 -31.838991 2.275092 -2.454012 9.488422 0.209491 -1.463374 4.059047 -0.134210 0.426730 0.146970 -3.774977 -3.270109 -7.458507 11.650465 -6.081800 8.333807 -10.105836 -4.598869 9.190222 3.517624 -5.021775 -12.129884 -15.633150 12.178546 45.449890 -6.861290 11.307980 7.452800 -13.307450 -10.823620 3.923047 -45.522347 -15.693017 3.090732 -3.189551 -9.307639 0.030831 -3.944202 2.906362 0.061150 0.304100 -0.057120 0.280810 6.116964 12.332387 8.673400 61.882882 4.306006 -8.696210 58.112046 48.979353 18.449491 2.351529 -1.948531 -0.024270 0.138800 -0.045240 0.124200 
0.965220 17.560040 1.096210 -3.248961 -0.335625 -2.433477 -15.208953 13.742716 2.633212 8.070829 -0.191619 -6.014597 -10.363477 8.137692 15.563066 0.355227 5.062514 3.046165 -0.031860 -0.017210 -0.196470 18.297910 -9.889141 3.285974 1.396346 4.592998 -30.994371 2.106542 -2.711163 11.643612 0.232864 -1.693544 4.007794 -0.156020 0.517530 0.152080 -3.559920 -3.335019 -7.312936 9.727792 -5.191032 6.664680 -7.683491 -4.132844 9.261294 2.917172 -4.841177 -12.005387 -15.195557 12.179260 45.547736 -5.569520 11.090440 9.732130 -10.823478 -10.833083 4.350271 -51.630912 -17.138732 5.028629 -3.438787 -7.015811 0.119873 -4.015686 2.940208 0.009980 0.366070 -0.122530 0.299530 5.032209 12.608795 8.113822 63.287385 6.605873 -8.067920 47.625270 43.576081 12.225671 2.327845 -1.887972 -0.042280 0.145830 -0.010690 0.152140 
0.881680 17.579390 1.154190 -3.914582 -0.827615 -2.146709 -15.245289 13.769710 2.618201 8.820979 -0.209292 -6.827680 -10.452801 8.415605 16.343256 0.402108 5.175552 3.038757 -0.093360 -0.066910 -0.285750 18.247609 -10.029012 3.122195 -0.194987 4.227117 -29.898131 2.489192 -3.121782 14.012134 0.246867 -2.007519 3.932721 -0.178510 0.619990 0.153050 -3.424386 -3.230735 -7.142677 8.310713 -4.177290 4.970466 -5.430328 -3.509585 9.322529 2.314461 -4.622160 -11.669523 -14.217723 11.759539 44.553537 -4.446690 10.765000 11.763020 -8.131089 -10.316829 4.543505 -58.607522 -18.390249 6.788545 -2.891453 -5.294432 0.206151 -4.080305 2.987176 -0.064230 0.433380 -0.190520 0.330260 3.696130 12.317567 7.528140 65.188239 8.477633 -7.190943 38.762704 38.306493 7.771031 2.328898 -1.836448 -0.055060 0.159880 0.012400 0.195920 
